<svg xmlns="http://www.w3.org/2000/svg" width="260" height="260">
  <!-- Copa arriba-izquierda, rotada -12° -->
  <g transform="translate(22,14) rotate(-12 28 50)" stroke="#7B4F96" stroke-width="1.4" stroke-linecap="round" stroke-linejoin="round" fill="none">
    <path d="M5 5 L52 5 Q58 30 44 43 Q38 49 28 51 Q18 49 12 43 Q-2 30 5 5 Z"/>
    <path d="M9 26 Q14 42 28 47 Q42 42 47 26 Z" fill="#7B4F96" fill-opacity="0.22"/>
    <line x1="28" y1="51" x2="28" y2="76"/>
    <line x1="16" y1="76" x2="40" y2="76"/>
  </g>

  <!-- Botella arriba-derecha, rotada +10° -->
  <g transform="translate(182,52) rotate(10 18 58)" stroke="#7B4F96" stroke-width="1.4" stroke-linecap="round" fill="none">
    <path d="M11 22 Q6 30 5 38 L5 80 Q5 87 18 87 Q31 87 31 80 L31 38 Q30 30 25 22 Z"/>
    <line x1="11" y1="22" x2="11" y2="7"/>
    <line x1="25" y1="22" x2="25" y2="7"/>
    <line x1="9"  y1="7"  x2="27" y2="7"/>
    <rect x="8" y="48" width="20" height="20" rx="2" fill="#7B4F96" fill-opacity="0.18"/>
  </g>

  <!-- Racimo abajo-izquierda, rotado +6° -->
  <g transform="translate(18,158) rotate(6 33 43)" fill="#7B4F96">
    <line x1="33" y1="0"  x2="33" y2="13" stroke="#7B4F96" stroke-width="1.4"/>
    <circle cx="33" cy="20" r="8"/>
    <circle cx="22" cy="30" r="8"/>
    <circle cx="44" cy="30" r="8"/>
    <circle cx="11" cy="42" r="8"/>
    <circle cx="33" cy="42" r="8"/>
    <circle cx="55" cy="42" r="8"/>
    <circle cx="22" cy="55" r="8"/>
    <circle cx="44" cy="55" r="8"/>
    <circle cx="33" cy="66" r="8"/>
  </g>

  <!-- Copa pequeña abajo-derecha, rotada -14° -->
  <g transform="translate(178,168) rotate(-14 22 38)" stroke="#7B4F96" stroke-width="1.4" stroke-linecap="round" stroke-linejoin="round" fill="none">
    <path d="M4 4 L40 4 Q45 23 34 33 Q29 37 22 38 Q15 37 10 33 Q-1 23 4 4 Z"/>
    <path d="M7 20 Q11 32 22 36 Q33 32 37 20 Z" fill="#7B4F96" fill-opacity="0.22"/>
    <line x1="22" y1="38" x2="22" y2="57"/>
    <line x1="13" y1="57" x2="31" y2="57"/>
  </g>
</svg>
